# xmcd
# 
# Track frame offsets:
#     187
#     34500
#     59667
#     82695
#     103027
#     125970
#     152275
#     175327
#     209050
#     234002
#     253005
#     273392
#     296967
# 
# Disc length: 4197
# 
# Revision: 1
# Processed by: cddbd v1.5.2PL0 Copyright (c) Steve Scherf et al.
# Submitted via: fre:ac v1.0.31
# 
DISCID=b810630d
DTITLE=Steely Dan - Citizen Steely Dan (4 of 4)
DYEAR=1993
DGENRE=Rock/Pop
TTITLE0=Deacon Blues
TTITLE1=Home at Last
TTITLE2=I Got The News
TTITLE3=Josie
TTITLE4=FM
TTITLE5=Babylon Sisters
TTITLE6=Hey Nineteen
TTITLE7=Glamour Profession
TTITLE8=Gaucho
TTITLE9=Time Out Of Mind
TTITLE10=My Rival
TTITLE11=Third World Man
TTITLE12=Everyone's Gone to the Movies (Demo)
EXTD=
EXTT0=Deacon Blues
EXTT1=Home at Last
EXTT2=I Got The News
EXTT3=Josie
EXTT4=FM
EXTT5=Babylon Sisters
EXTT6=Hey Nineteen
EXTT7=Glamour Profession
EXTT8=Gaucho
EXTT9=Time Out Of Mind
EXTT10=My Rival
EXTT11=Third World Man
EXTT12=Everyone's Gone to the Movies (Demo)
PLAYORDER=
